<svg width="28" height="21" viewBox="0 0 28 21" fill="none" xmlns="http://www.w3.org/2000/svg">
<path d="M25.1462 0H2.42308C2.05009 0 1.70089 0.0917 1.38498 0.242846L13.7308 12.5886L16.4979 9.92934C16.4979 9.92934 16.4981 9.92907 16.4981 9.92896C16.4982 9.92885 16.4984 9.92875 16.4984 9.92875L26.1846 0.243062C25.8687 0.0918077 25.5193 0 25.1462 0Z" fill="#E8E8E8" fill-opacity="0.5"/>
<path d="M27.3267 1.38531L18.2115 10.5001L27.3264 19.615C27.4775 19.2991 27.5692 18.9499 27.5692 18.5769V2.42304C27.5692 2.05026 27.4778 1.70112 27.3267 1.38531Z" fill="#E8E8E8" fill-opacity="0.5"/>
<path d="M0.242846 1.38495C0.0917 1.70086 0 2.05006 0 2.42305V18.5769C0 18.9497 0.0915923 19.2989 0.242631 19.6147L9.35787 10.5L0.242846 1.38495Z" fill="#E8E8E8" fill-opacity="0.5"/>
<path d="M17.0694 11.6423L14.3019 14.3019C14.1441 14.4597 13.9374 14.5385 13.7308 14.5385C13.5242 14.5385 13.3175 14.4597 13.1598 14.3019L10.5 11.6422L1.38461 20.757C1.70058 20.9082 2.04999 21 2.42309 21H25.1462C25.5192 21 25.8684 20.9083 26.1843 20.7572L17.0694 11.6423Z" fill="#E8E8E8" fill-opacity="0.5"/>
</svg>
